<?xml version="1.0" standalone="no"?>
<!DOCTYPE svg PUBLIC "-//W3C//DTD SVG 20010904//EN"
 "http://www.w3.org/TR/2001/REC-SVG-20010904/DTD/svg10.dtd">
<svg version="1.0" xmlns="http://www.w3.org/2000/svg"
 width="512.000000pt" height="512.000000pt" viewBox="0 0 512.000000 512.000000"
 preserveAspectRatio="xMidYMid meet">
<metadata>
Created by potrace 1.11, written by Peter Selinger 2001-2013
</metadata>
<g transform="translate(0.000000,512.000000) scale(0.100000,-0.100000)"
fill="#000000" stroke="none">
<path d="M1395 4638 c-16 -6 -35 -18 -42 -27 -20 -26 -41 -101 -31 -107 5 -3
7 -12 4 -19 -2 -7 1 -18 7 -24 6 -6 7 -11 2 -11 -4 0 5 -12 21 -26 16 -15 22
-23 14 -19 -8 4 -4 -2 9 -13 13 -11 21 -24 17 -31 -4 -6 -3 -11 3 -11 5 0 12
6 14 13 4 8 6 7 6 -4 1 -8 17 -31 37 -50 25 -24 34 -41 31 -56 -2 -12 0 -20 5
-17 4 3 11 -2 14 -11 4 -10 13 -13 26 -9 14 4 18 2 14 -5 -4 -6 0 -14 8 -17 8
-3 18 -14 21 -25 4 -10 9 -18 13 -16 6 2 13 -8 11 -15 -8 -26 -5 -36 8 -31 12
5 12 7 1 14 -10 7 -10 9 0 9 7 0 16 -8 19 -17 4 -10 15 -24 25 -31 11 -8 17
-22 14 -35 -1 -12 -1 -16 1 -9 6 18 12 14 65 -44 44 -47 46 -51 31 -67 -11
-11 -13 -17 -5 -17 7 0 12 5 12 10 0 6 8 10 18 10 14 0 15 -2 2 -10 -11 -7
-11 -10 -2 -10 8 0 10 -5 6 -12 -5 -8 0 -7 11 2 17 14 17 13 10 -9 -6 -21 -5
-23 11 -17 17 5 17 4 -1 -10 -19 -15 -19 -15 6 -10 21 3 31 -2 48 -24 13 -18
18 -36 14 -47 -6 -16 -5 -17 13 -3 10 8 16 10 12 6 -5 -5 1 -16 13 -24 13 -9
19 -21 16 -34 -5 -16 -3 -17 11 -6 13 11 15 11 9 -4 -4 -13 -2 -15 11 -11 15
6 16 5 2 -12 -10 -13 -11 -16 -2 -11 18 11 52 -21 52 -48 0 -17 2 -18 10 -6 8
13 10 12 10 -3 0 -11 4 -15 12 -11 7 4 8 3 4 -4 -4 -6 -13 -9 -21 -5 -8 3 -15
1 -15 -5 0 -5 12 -9 28 -8 17 1 27 -4 28 -14 1 -8 3 -19 4 -25 1 -5 2 -13 1
-17 0 -4 9 -7 22 -5 18 2 22 -3 20 -21 -2 -13 1 -21 6 -18 10 6 12 -44 3 -59
-4 -5 -7 -13 -7 -16 0 -18 -35 -35 -70 -33 -62 2 -67 3 -59 16 4 6 3 8 -4 4
-6 -3 -22 5 -36 19 -14 14 -30 25 -36 25 -6 0 -8 5 -5 10 3 6 -1 10 -10 10 -8
0 -19 9 -23 19 -4 11 -9 19 -12 18 -6 -1 -34 21 -91 73 -50 46 -66 60 -106 92
-22 17 -29 28 -21 31 7 3 4 6 -7 6 -21 2 -105 75 -105 92 0 6 -4 7 -10 4 -5
-3 -10 1 -10 9 0 9 -4 15 -9 13 -5 -1 -17 6 -28 15 -88 81 -118 112 -115 120
1 5 -2 6 -8 3 -13 -8 -60 32 -60 51 0 6 -8 11 -17 10 -10 0 -17 5 -15 12 1 6
-4 11 -10 10 -7 -2 -12 3 -10 10 1 6 -2 11 -7 10 -5 -2 -17 6 -28 17 -10 11
-27 25 -38 32 -11 6 -19 16 -17 23 1 6 -2 9 -7 6 -5 -4 -13 0 -18 7 -4 8 -20
22 -35 32 -15 9 -26 20 -24 24 3 4 -5 8 -17 9 -68 6 -100 2 -125 -14 -15 -10
-31 -17 -35 -16 -5 1 -6 -2 -2 -8 3 -5 1 -10 -4 -10 -6 0 -11 -9 -11 -21 0
-11 -3 -18 -7 -16 -5 3 -8 -15 -8 -39 0 -24 4 -44 9 -44 4 0 2 -8 -5 -17 -10
-11 -10 -14 -1 -9 19 12 35 -3 21 -20 -10 -12 -10 -15 2 -12 8 2 13 -3 11 -11
-2 -8 3 -11 13 -8 8 4 16 1 17 -6 0 -7 2 -16 3 -22 2 -5 3 -16 4 -23 0 -7 6
-10 12 -6 8 4 7 9 -2 15 -9 6 -10 9 -2 9 6 0 23 -15 38 -32 14 -18 33 -41 41
-51 19 -24 18 -30 -5 -17 -35 18 -37 11 -3 -10 17 -11 32 -25 32 -32 0 -6 3
-8 6 -5 4 4 1 13 -6 22 -7 8 -8 15 -3 15 5 0 16 -11 23 -25 7 -13 18 -22 23
-18 6 4 7 1 3 -6 -5 -7 -15 -10 -23 -7 -8 3 -11 1 -8 -5 4 -5 16 -7 27 -3 13
4 18 2 14 -4 -3 -6 3 -13 13 -17 12 -3 18 -12 15 -20 -3 -8 4 -19 18 -26 29
-16 48 -35 48 -49 0 -6 5 -8 12 -4 6 4 8 3 5 -3 -4 -6 1 -19 9 -29 9 -10 12
-12 8 -4 -4 8 5 4 20 -9 18 -17 23 -28 16 -35 -5 -5 -10 -15 -10 -21 0 -5 5
-3 10 5 8 13 11 13 22 1 8 -8 8 -11 1 -7 -13 7 -12 -19 2 -31 4 -4 5 -2 1 5
-4 7 -1 12 8 12 19 0 20 -11 4 -30 -11 -13 -11 -13 2 -2 7 6 18 12 23 12 4 0
5 -6 0 -12 -12 -20 -12 -37 -1 -45 7 -3 8 -1 4 5 -4 7 -1 12 6 12 10 0 9 3 -2
11 -13 9 -13 10 0 6 8 -2 14 -11 14 -20 -1 -9 4 -13 11 -11 22 9 30 -18 10
-33 -22 -15 -12 -17 15 -3 15 8 20 6 25 -10 4 -12 11 -17 18 -13 7 4 6 0 -1
-10 -8 -9 -12 -22 -9 -29 3 -8 6 -6 6 5 1 14 5 16 21 7 12 -7 17 -16 13 -27
-5 -12 -3 -14 7 -8 10 6 12 4 6 -10 -6 -16 -4 -16 11 -4 15 12 16 12 10 -3 -4
-12 -2 -18 8 -18 7 0 17 -5 21 -12 4 -7 3 -8 -4 -4 -7 4 -12 5 -12 1 0 -3 11
-10 25 -15 14 -5 25 -15 25 -22 0 -7 9 -19 20 -26 22 -14 26 -38 8 -46 -7 -3
-1 -3 14 -1 19 2 31 -3 42 -18 8 -12 26 -35 40 -50 13 -16 22 -35 20 -42 -3
-7 -1 -16 5 -20 6 -3 11 -11 11 -16 0 -6 -5 -7 -10 -4 -7 4 -9 -2 -4 -19 4
-16 2 -26 -5 -26 -6 0 -10 -5 -9 -12 4 -19 -61 -37 -97 -27 -16 5 -32 14 -33
19 -2 6 -7 8 -12 5 -4 -2 -16 5 -26 17 -11 12 -13 18 -5 13 10 -5 12 -4 7 4
-4 6 -11 9 -15 6 -12 -7 -43 30 -34 40 5 4 3 5 -4 1 -11 -6 -55 29 -148 116
-16 15 -34 28 -38 28 -5 0 -5 5 -2 10 3 6 1 10 -4 10 -17 0 -50 33 -44 43 3 6
1 7 -5 3 -7 -4 -12 -2 -12 3 0 6 -6 11 -13 11 -14 0 -43 27 -49 45 -2 6 -6 9
-10 8 -4 -2 -17 10 -28 25 -12 15 -23 25 -23 23 -1 -3 -18 9 -37 26 -19 17
-53 47 -75 67 -22 20 -44 36 -49 36 -4 0 -5 7 -2 16 3 9 2 12 -5 8 -6 -3 -25
10 -43 30 -18 19 -37 32 -41 28 -5 -4 -5 1 -2 11 4 10 3 16 -3 12 -5 -3 -17 2
-28 12 -10 10 -36 34 -57 52 -22 19 -39 39 -38 43 2 4 0 7 -5 5 -11 -3 -62 39
-57 47 3 3 2 4 -1 1 -4 -2 -18 1 -33 8 -46 21 -111 8 -140 -29 -10 -13 -22
-20 -26 -16 -3 4 -5 2 -4 -3 5 -17 -11 -98 -23 -112 -14 -17 7 -44 28 -36 10
4 12 0 7 -13 -4 -12 -3 -15 5 -10 7 4 12 1 12 -9 0 -9 4 -13 10 -10 5 3 10 -1
10 -9 0 -8 9 -18 21 -21 17 -6 18 -9 7 -23 -10 -12 -10 -14 0 -8 6 4 12 3 12
-3 0 -5 9 -13 20 -16 15 -5 19 -12 15 -26 -4 -11 -2 -19 5 -19 6 0 8 5 5 10
-15 25 9 5 60 -47 30 -32 55 -66 55 -76 0 -11 4 -15 12 -11 7 5 9 2 5 -8 -3
-10 0 -15 11 -14 9 0 18 -7 20 -18 3 -13 0 -16 -9 -11 -8 5 -10 4 -5 -4 4 -6
11 -9 15 -6 10 5 75 -42 77 -55 1 -6 2 -14 3 -20 0 -5 8 -7 16 -3 9 3 15 2 14
-3 -4 -21 2 -35 11 -29 6 3 10 -1 10 -10 0 -9 4 -14 10 -10 5 3 17 -9 26 -26
13 -26 13 -31 2 -26 -9 3 -15 -1 -15 -9 0 -12 4 -12 24 1 13 9 23 12 22 8 -3
-19 2 -36 8 -29 4 3 13 -6 20 -21 7 -16 11 -20 8 -10 -3 10 -1 15 5 12 6 -3
10 -15 10 -25 0 -10 5 -22 12 -26 7 -5 9 -2 3 7 -7 14 31 -24 69 -69 15 -17
16 -25 7 -36 -8 -10 -9 -16 -1 -21 6 -4 9 -1 8 6 -2 6 3 14 11 17 10 3 12 0 8
-11 -3 -9 -2 -19 4 -22 5 -4 6 -12 2 -18 -4 -7 1 -6 11 2 15 13 19 13 27 0 5
-8 7 -19 5 -25 -2 -6 6 -10 18 -10 15 1 20 -4 18 -18 -2 -10 0 -16 5 -14 4 3
16 -4 26 -14 17 -18 17 -19 0 -16 -10 2 -22 8 -26 13 -5 6 -7 4 -5 -4 2 -8 15
-16 28 -18 13 -2 28 -9 32 -16 4 -6 8 -9 8 -4 0 4 17 -12 38 -35 20 -23 36
-45 34 -50 -1 -4 5 -8 13 -8 9 0 12 -6 8 -17 -5 -13 -2 -15 13 -10 18 7 18 6
-1 -9 -16 -14 -17 -16 -3 -11 26 9 47 -2 43 -23 -2 -11 2 -17 12 -16 9 0 18
-5 20 -12 3 -7 -1 -10 -11 -6 -9 3 -16 1 -16 -6 0 -6 4 -8 10 -5 5 3 10 1 10
-6 0 -7 7 -4 16 7 8 10 13 13 9 7 -3 -7 -1 -13 5 -13 6 0 16 -11 22 -25 6 -14
16 -25 22 -25 6 0 5 5 -2 12 -7 7 -12 17 -12 22 0 6 5 3 11 -7 6 -9 14 -15 19
-12 4 3 11 -2 14 -11 3 -8 10 -13 15 -10 5 3 14 -1 21 -9 7 -8 16 -13 20 -10
5 3 16 -5 24 -17 9 -12 26 -23 38 -25 18 -2 20 -1 8 7 -9 6 -10 10 -3 10 6 0
15 -5 18 -10 4 -6 12 -8 18 -4 7 3 5 0 -3 -8 -8 -7 -16 -20 -18 -28 -2 -11 2
-10 12 4 14 18 36 15 36 -5 0 -6 -5 -7 -12 -3 -7 5 -8 3 -3 -6 6 -10 11 -10
20 3 15 21 29 22 21 1 -3 -9 -2 -12 5 -9 5 4 7 16 3 28 -6 18 -4 20 7 11 8 -6
22 -10 31 -9 10 2 20 0 23 -5 2 -4 -5 -7 -17 -6 -12 0 -23 -6 -25 -14 -3 -10
-2 -11 4 -4 4 6 16 10 26 8 10 -1 21 4 24 12 4 12 8 12 19 -3 8 -10 13 -13 12
-8 -2 6 1 12 6 15 5 3 10 -5 11 -17 1 -13 5 -26 10 -30 4 -5 4 2 0 15 -7 23
11 28 28 7 5 -5 6 -1 3 11 -4 14 -2 21 8 21 9 0 13 -4 10 -9 -3 -4 1 -8 8 -8
9 0 9 -3 -2 -10 -13 -8 -13 -11 -1 -22 9 -8 11 -9 7 -1 -3 6 -2 14 3 18 6 3 8
11 5 18 -2 7 4 13 16 14 11 1 20 -3 20 -8 0 -6 -4 -8 -8 -5 -4 2 -9 -5 -9 -17
-1 -12 1 -17 5 -12 8 12 27 13 38 2 4 -4 12 -7 18 -7 6 0 3 5 -6 11 -18 10
-15 35 5 37 45 6 210 6 213 0 3 -4 13 -5 24 -3 13 3 20 -2 20 -12 0 -13 2 -14
17 -2 15 13 15 12 4 -9 -12 -23 -12 -23 12 -7 24 15 26 15 39 -4 8 -12 18 -18
23 -13 5 4 5 1 1 -5 -4 -7 -3 -13 2 -13 4 0 23 -13 41 -29 30 -27 31 -30 14
-41 -17 -10 -17 -11 2 -6 21 6 47 -5 47 -19 0 -4 -6 -12 -14 -17 -9 -6 -6 -7
10 -3 18 5 22 2 22 -14 0 -12 5 -21 11 -21 5 0 7 6 3 13 -4 6 2 4 14 -6 11
-10 19 -27 17 -36 -2 -10 1 -24 7 -32 8 -11 9 -10 4 4 -9 27 5 20 46 -25 39
-43 49 -60 24 -39 -10 8 -16 9 -21 1 -4 -6 -1 -9 7 -8 8 2 12 -4 10 -16 -3
-18 -2 -18 13 -2 21 20 32 21 15 1 -11 -13 -10 -14 4 -9 12 5 15 2 10 -10 -4
-9 -3 -16 2 -14 5 1 19 -4 32 -12 l22 -15 -22 -18 -23 -18 23 11 c21 10 27 7
60 -30 20 -23 52 -57 70 -75 19 -19 28 -36 22 -40 -13 -8 -13 -25 1 -25 5 0 7
5 4 10 -3 5 -1 10 4 10 6 0 11 -5 11 -10 0 -6 3 -9 8 -8 4 2 7 -1 7 -7 0 -5
-6 -9 -12 -9 -7 1 -10 -2 -7 -8 3 -5 15 -6 26 -2 12 3 18 2 15 -3 -4 -6 5 -16
18 -23 14 -7 25 -18 25 -23 0 -5 -7 -4 -15 3 -9 7 -15 8 -15 2 0 -13 29 -24
43 -15 7 3 9 3 5 -2 -4 -4 4 -16 17 -27 14 -11 23 -24 20 -29 -8 -11 24 -59
39 -59 7 0 7 3 1 8 -5 4 -16 15 -24 25 -12 15 -12 17 0 12 8 -3 26 -23 39 -45
14 -22 33 -43 42 -46 10 -3 18 -9 18 -14 0 -5 15 -23 34 -41 19 -17 33 -39 31
-49 -2 -9 1 -23 7 -31 8 -11 9 -10 4 4 -9 27 3 20 51 -28 34 -35 40 -47 28
-51 -8 -3 -15 -11 -15 -16 0 -6 7 -5 15 2 9 7 19 10 22 6 4 -4 1 -11 -6 -15
-8 -5 -9 -11 -3 -15 6 -3 12 -1 14 6 6 16 98 -82 98 -104 0 -10 5 -18 11 -18
5 0 7 5 3 12 -4 6 -3 8 4 4 6 -3 9 -15 7 -25 -2 -11 3 -22 10 -25 10 -3 12 0
9 12 -4 12 -2 11 7 -3 7 -11 21 -27 31 -35 9 -8 20 -31 23 -50 3 -19 9 -37 12
-40 3 -3 3 5 0 18 -8 33 7 27 47 -20 28 -32 33 -44 24 -55 -6 -7 -8 -16 -4
-20 3 -3 6 -1 6 5 0 7 6 12 13 12 17 0 49 -34 41 -42 -3 -4 4 -9 15 -13 12 -4
21 -15 21 -26 0 -11 4 -18 8 -15 12 7 54 -52 47 -64 -4 -6 -12 -7 -18 -4 -8 5
-8 3 0 -6 11 -12 16 -11 29 6 15 19 15 18 11 -3 -3 -13 0 -26 5 -30 7 -3 8 -1
4 5 -4 7 -2 12 3 12 15 0 14 -23 -2 -40 -8 -10 -5 -9 8 1 18 15 21 14 37 -2
16 -17 16 -19 0 -29 -15 -10 -15 -10 3 -6 11 3 27 1 35 -5 13 -9 12 -10 -3 -5
-10 3 -16 2 -12 -3 3 -5 0 -11 -7 -13 -9 -3 -9 -6 0 -12 7 -4 12 -2 12 3 0 19
28 12 35 -8 3 -10 13 -22 23 -25 9 -3 41 -24 71 -45 30 -22 58 -38 62 -35 4 2
10 0 14 -6 4 -6 11 -8 16 -5 5 4 12 0 15 -8 4 -11 21 -14 64 -12 54 2 58 1 50
-16 -13 -24 -12 -39 1 -16 6 9 15 14 21 11 7 -4 8 -2 4 4 -4 7 -1 12 6 13 7 0
23 2 35 5 12 2 25 -1 28 -6 3 -5 13 -6 22 -3 11 4 14 3 9 -6 -6 -9 -3 -9 13 1
25 15 27 25 6 25 -8 0 -12 -3 -10 -7 2 -3 -5 -6 -16 -6 -22 0 -10 16 17 21 11
2 19 4 19 5 0 1 8 3 18 5 9 2 15 -1 11 -6 -3 -5 -1 -9 5 -9 5 0 13 9 16 20 4
11 15 20 26 20 13 0 18 -4 13 -12 -4 -7 -3 -8 4 -4 6 4 8 14 5 23 -4 11 -3 14
5 9 7 -4 12 -1 12 8 0 10 6 13 18 9 9 -3 14 -3 10 2 -13 14 11 33 35 28 15 -3
18 -2 9 4 -10 7 -6 18 18 44 16 19 30 40 30 48 0 7 6 11 13 8 8 -3 14 1 14 9
0 7 -5 11 -11 8 -6 -3 0 4 14 16 14 12 18 18 10 14 -12 -6 -13 -5 -4 7 6 8 10
22 9 32 -2 9 1 14 7 11 6 -4 8 1 4 14 -4 11 -2 23 4 27 6 3 7 11 4 17 -4 6 0
14 7 19 10 6 11 9 2 9 -7 0 -13 5 -13 11 0 5 4 8 8 5 5 -3 9 1 9 9 0 8 -4 12
-8 10 -4 -3 -6 6 -5 20 0 14 6 25 11 25 6 0 4 4 -4 9 -8 5 -11 16 -8 25 4 9 2
16 -3 16 -5 0 -7 9 -5 20 2 11 0 20 -6 20 -5 0 -8 3 -8 8 1 4 0 10 -1 15 -1 4
-3 10 -4 15 -1 4 -7 17 -14 30 -7 12 -10 28 -6 34 4 7 3 8 -4 4 -7 -4 -12 -3
-12 2 0 5 -27 38 -60 74 -32 36 -56 69 -52 73 4 5 1 5 -5 1 -8 -4 -32 11 -62
41 -27 26 -52 49 -55 50 -15 4 -94 82 -88 87 3 3 -1 6 -9 6 -8 0 -21 8 -30 18
-8 9 -29 28 -46 42 -17 13 -29 29 -26 34 3 5 1 6 -5 2 -6 -3 -19 5 -30 19 -11
14 -24 25 -28 25 -5 0 -26 18 -47 40 -20 22 -40 40 -43 40 -12 0 -83 73 -78
81 3 5 -3 6 -12 2 -12 -4 -15 -3 -10 5 4 7 1 12 -6 12 -8 0 -25 13 -38 28 -14
15 -33 31 -43 35 -10 4 -15 12 -12 17 4 6 1 9 -7 8 -7 -2 -12 3 -10 10 1 8 -2
11 -7 8 -12 -8 -33 18 -23 29 4 5 1 5 -5 1 -8 -4 -13 -2 -13 5 0 7 -3 9 -7 6
-3 -4 -24 11 -45 33 -22 22 -42 40 -45 40 -2 0 -22 17 -43 39 -21 21 -45 41
-54 44 -9 4 -16 14 -16 23 0 10 -3 14 -7 11 -3 -4 -16 5 -29 18 -13 14 -26 25
-29 25 -13 0 -34 28 -27 35 4 5 2 6 -4 2 -5 -3 -45 27 -88 68 -43 40 -79 74
-82 74 -13 3 -63 55 -58 62 3 5 -3 6 -12 2 -12 -4 -15 -3 -10 5 4 7 2 12 -5
12 -7 0 -27 16 -46 35 -19 19 -37 35 -41 35 -12 1 -147 133 -144 142 1 4 -4 7
-10 6 -7 -2 -12 2 -11 8 1 7 -5 11 -15 10 -9 0 -16 5 -14 12 1 8 -1 11 -6 8
-10 -6 -62 48 -62 64 0 5 -6 10 -12 10 -10 0 -9 3 1 9 11 7 9 10 -7 15 -11 4
-23 14 -26 22 -4 10 -2 13 7 8 6 -4 4 2 -7 14 -16 19 -17 24 -5 39 9 11 10 14
2 9 -7 -4 -14 -2 -14 3 -1 6 -2 17 -3 24 -1 6 6 19 14 27 9 8 11 12 6 8 -6 -5
-13 -8 -17 -8 -3 0 -6 67 -5 149 1 82 -2 147 -6 144 -5 -2 -8 1 -8 6 0 6 6 11
13 11 9 0 9 2 0 8 -6 4 -14 25 -17 47 -2 22 -9 54 -14 72 -6 17 -8 34 -4 37 3
3 -1 6 -8 6 -7 0 -10 3 -7 7 4 3 2 12 -4 20 -6 7 -8 13 -3 13 5 0 4 4 -1 8
-16 11 -57 84 -43 76 7 -4 4 2 -7 13 -11 11 -27 30 -35 42 -8 13 -29 39 -47
59 -17 19 -29 40 -26 45 3 6 1 7 -6 3 -14 -9 -103 73 -94 87 3 6 2 7 -3 4 -12
-7 -76 48 -66 57 4 4 2 6 -3 4 -14 -4 -66 43 -59 54 3 5 2 8 -3 7 -20 -3 -34
2 -28 11 3 6 0 10 -8 10 -19 0 -49 34 -40 45 5 4 3 5 -3 2 -14 -8 -37 17 -26
28 4 5 3 6 -3 3 -5 -3 -30 12 -55 34 -25 22 -38 37 -30 33 9 -5 12 -4 7 1 -5
5 -12 9 -17 9 -16 0 -149 129 -143 138 3 6 1 7 -5 4 -5 -4 -22 7 -36 24 -14
17 -26 28 -26 25 0 -4 -13 6 -30 20 -16 15 -27 31 -24 36 3 5 0 7 -8 6 -7 -2
-12 3 -10 10 1 6 -1 11 -5 10 -13 -5 -83 54 -77 63 3 5 -1 9 -9 9 -19 0 -59
44 -50 55 5 4 2 5 -4 1 -8 -4 -13 -2 -13 5 0 7 -3 9 -7 6 -3 -4 -28 16 -54 43
-26 28 -51 50 -54 50 -13 0 -34 28 -27 35 4 5 2 5 -4 2 -7 -4 -17 -1 -23 6
-13 17 -86 19 -126 5z m130 -407 c-6 -5 -25 10 -25 20 0 5 6 4 14 -3 8 -7 12
-15 11 -17z m-1062 -644 c-3 -5 -10 -4 -15 1 -6 6 -7 16 -3 22 6 9 9 9 16 -1
4 -7 5 -17 2 -22z m1652 -27 c3 -5 2 -10 -4 -10 -5 0 -13 5 -16 10 -3 6 -2 10
4 10 5 0 13 -4 16 -10z m-965 -740 c0 -5 -2 -10 -4 -10 -3 0 -8 5 -11 10 -3 6
-1 10 4 10 6 0 11 -4 11 -10z m610 -484 c0 -11 -19 -15 -25 -6 -3 5 1 10 9 10
9 0 16 -2 16 -4z m261 -29 c-10 -9 -11 -8 -5 6 3 10 9 15 12 12 3 -3 0 -11 -7
-18z"/>
<path d="M1333 4408 c1 -15 6 -23 11 -18 4 4 4 16 -2 26 -9 16 -10 14 -9 -8z"/>
<path d="M1410 4331 c0 -10 19 -25 25 -20 1 2 -3 10 -11 17 -8 7 -14 8 -14 3z"/>
<path d="M1441 4293 c-1 -17 16 -25 25 -12 4 7 3 9 -4 5 -5 -3 -13 0 -15 6 -4
9 -6 10 -6 1z"/>
<path d="M1535 4180 c-3 -5 -1 -10 4 -10 6 0 11 5 11 10 0 6 -2 10 -4 10 -3 0
-8 -4 -11 -10z"/>
<path d="M1560 4156 c0 -8 4 -17 9 -20 5 -4 7 3 4 14 -6 23 -13 26 -13 6z"/>
<path d="M1600 4080 c-9 -6 -10 -10 -3 -10 6 0 15 5 18 10 8 12 4 12 -15 0z"/>
<path d="M1626 4063 c-6 -14 -5 -15 5 -6 7 7 10 15 7 18 -3 3 -9 -2 -12 -12z"/>
<path d="M1673 3985 c0 -8 4 -12 9 -9 5 3 6 10 3 15 -9 13 -12 11 -12 -6z"/>
<path d="M1710 3991 c0 -5 5 -13 10 -16 6 -3 10 -2 10 4 0 5 -4 13 -10 16 -5
3 -10 2 -10 -4z"/>
<path d="M1740 3966 c0 -2 8 -10 18 -17 15 -13 16 -12 3 4 -13 16 -21 21 -21
13z"/>
<path d="M915 3950 c-3 -5 -1 -10 4 -10 6 0 11 5 11 10 0 6 -2 10 -4 10 -3 0
-8 -4 -11 -10z"/>
<path d="M1730 3940 c0 -5 5 -10 11 -10 5 0 7 5 4 10 -3 6 -8 10 -11 10 -2 0
-4 -4 -4 -10z"/>
<path d="M980 3900 c10 -6 11 -10 3 -10 -7 0 -13 -5 -13 -11 0 -8 5 -8 15 1
16 13 11 30 -8 30 -7 0 -6 -4 3 -10z"/>
<path d="M996 3872 c-3 -5 1 -9 9 -9 8 0 12 4 9 9 -3 4 -7 8 -9 8 -2 0 -6 -4
-9 -8z"/>
<path d="M1850 3842 c0 -11 27 -42 37 -42 3 0 -2 10 -13 23 -10 12 -20 24 -21
26 -2 2 -3 -1 -3 -7z"/>
<path d="M1896 3743 c-6 -14 -5 -15 5 -6 7 7 10 15 7 18 -3 3 -9 -2 -12 -12z"/>
<path d="M1090 3740 c0 -5 5 -10 11 -10 5 0 7 5 4 10 -3 6 -8 10 -11 10 -2 0
-4 -4 -4 -10z"/>
<path d="M435 3681 c-3 -5 -2 -12 3 -15 5 -3 9 1 9 9 0 17 -3 19 -12 6z"/>
<path d="M1153 3675 c0 -7 6 -11 14 -8 7 3 13 6 13 8 0 2 -6 5 -13 8 -8 3 -14
-1 -14 -8z"/>
<path d="M1987 3667 c-3 -7 3 -13 14 -13 13 0 15 3 7 13 -6 7 -12 13 -13 13
-2 0 -5 -6 -8 -13z"/>
<path d="M1195 3620 c3 -5 8 -10 11 -10 2 0 4 5 4 10 0 6 -5 10 -11 10 -5 0
-7 -4 -4 -10z"/>
<path d="M1247 3587 c-3 -8 1 -14 9 -14 16 0 19 13 5 21 -5 3 -11 0 -14 -7z"/>
<path d="M490 3500 c0 -5 5 -10 11 -10 5 0 7 5 4 10 -3 6 -8 10 -11 10 -2 0
-4 -4 -4 -10z"/>
<path d="M536 3439 c3 -5 9 -7 14 -4 4 3 11 0 13 -5 3 -6 4 -5 3 1 -1 7 -10
13 -19 15 -9 1 -15 -2 -11 -7z"/>
<path d="M596 3388 c3 -5 10 -6 15 -3 13 9 11 12 -6 12 -8 0 -12 -4 -9 -9z"/>
<path d="M623 3370 c2 -8 10 -14 17 -12 7 2 10 -3 7 -11 -3 -9 1 -14 11 -13 9
0 16 -4 15 -11 -1 -6 4 -14 13 -17 11 -4 12 -2 5 12 -12 23 -51 58 -51 46 0
-5 -5 -2 -11 6 -9 13 -10 13 -6 0z"/>
<path d="M636 3287 c3 -10 9 -15 12 -12 3 3 0 11 -7 18 -10 9 -11 8 -5 -6z"/>
<path d="M690 3285 c0 -5 5 -17 10 -25 5 -8 10 -10 10 -5 0 6 -5 17 -10 25 -5
8 -10 11 -10 5z"/>
<path d="M1490 3280 c0 -5 5 -10 10 -10 6 0 10 5 10 10 0 6 -4 10 -10 10 -5 0
-10 -4 -10 -10z"/>
<path d="M1515 3251 c-3 -5 -2 -12 3 -15 5 -3 9 1 9 9 0 17 -3 19 -12 6z"/>
<path d="M1553 3238 c1 -16 5 -28 9 -28 10 0 9 9 -2 35 -8 17 -8 16 -7 -7z"/>
<path d="M1585 3200 c3 -5 8 -10 11 -10 2 0 4 5 4 10 0 6 -5 10 -11 10 -5 0
-7 -4 -4 -10z"/>
<path d="M790 3191 c0 -7 -5 -9 -12 -5 -7 4 -10 3 -6 -1 5 -5 20 -10 34 -11
14 -2 25 -2 23 -1 -2 2 -12 9 -21 16 -13 10 -18 10 -18 2z"/>
<path d="M1630 3139 c0 -5 4 -8 9 -5 11 7 62 -59 53 -69 -4 -5 -1 -5 6 -1 9 6
4 18 -19 47 -30 38 -49 49 -49 28z"/>
<path d="M873 3085 c0 -8 2 -13 5 -10 3 2 13 0 23 -6 15 -8 17 -6 13 6 -4 9
-9 13 -12 11 -3 -3 -10 -1 -17 4 -8 7 -12 5 -12 -5z"/>
<path d="M934 3009 c-3 -6 -2 -15 3 -20 5 -5 9 -1 9 11 0 23 -2 24 -12 9z"/>
<path d="M1020 2930 c-12 -7 -10 -9 7 -7 12 0 19 5 17 9 -6 10 -6 10 -24 -2z"/>
<path d="M1036 2899 c3 -5 9 -7 14 -4 8 5 25 -23 22 -37 -1 -5 3 -8 8 -8 14 0
12 11 -5 34 -15 20 -50 33 -39 15z"/>
<path d="M1150 2779 c0 -5 5 -7 10 -4 6 3 10 8 10 11 0 2 -4 4 -10 4 -5 0 -10
-5 -10 -11z"/>
<path d="M1170 2740 c0 -5 5 -10 11 -10 5 0 7 5 4 10 -3 6 -8 10 -11 10 -2 0
-4 -4 -4 -10z"/>
<path d="M1283 2649 c15 -9 16 -13 5 -27 -11 -15 -11 -15 3 -5 21 17 33 5 16
-16 -11 -14 -10 -14 6 -2 11 9 17 10 17 2 0 -6 5 -11 12 -11 7 0 -3 16 -22 35
-19 19 -39 35 -44 35 -6 0 -3 -5 7 -11z"/>
<path d="M1330 2566 c0 -2 7 -7 16 -10 8 -3 12 -2 9 4 -6 10 -25 14 -25 6z"/>
<path d="M1395 2500 c3 -5 8 -10 11 -10 2 0 4 5 4 10 0 6 -5 10 -11 10 -5 0
-7 -4 -4 -10z"/>
<path d="M1470 2426 c0 -2 7 -7 16 -10 8 -3 12 -2 9 4 -6 10 -25 14 -25 6z"/>
<path d="M1541 2394 c0 -11 3 -14 6 -6 3 7 2 16 -1 19 -3 4 -6 -2 -5 -13z"/>
<path d="M1566 2391 c-5 -7 -5 -15 -2 -18 3 -4 6 0 6 7 0 9 5 7 14 -5 8 -11
12 -23 10 -27 -2 -4 0 -9 5 -12 14 -9 8 18 -10 44 -11 17 -18 20 -23 11z"/>
<path d="M1650 2326 c0 -2 7 -7 16 -10 8 -3 12 -2 9 4 -6 10 -25 14 -25 6z"/>
<path d="M2085 2319 c-3 -3 6 -5 18 -5 12 1 27 -2 34 -6 6 -5 14 -5 18 2 7 12
8 12 -33 14 -18 1 -35 -1 -37 -5z"/>
<path d="M2200 2322 c0 -7 -7 -9 -17 -5 -10 3 -15 3 -11 -1 3 -4 12 -8 20 -10
7 -1 20 -6 28 -11 13 -8 13 -7 0 11 -8 10 -16 21 -17 23 -2 2 -3 -1 -3 -7z"/>
<path d="M2250 2321 c0 -10 7 -12 26 -10 3 0 12 -8 20 -18 14 -16 14 -16 4 5
-7 13 -14 21 -17 18 -4 -3 -12 -1 -20 5 -9 9 -13 8 -13 0z"/>
<path d="M2055 2310 c-3 -5 -1 -10 4 -10 6 0 11 5 11 10 0 6 -2 10 -4 10 -3 0
-8 -4 -11 -10z"/>
<path d="M1853 2291 c0 -11 5 -18 9 -15 4 3 5 11 1 19 -7 21 -12 19 -10 -4z"/>
<path d="M2155 2289 c-4 -6 -5 -12 -2 -15 2 -3 7 2 10 11 7 17 1 20 -8 4z"/>
<path d="M2355 2290 c-4 -6 -3 -16 3 -22 6 -6 12 -6 17 2 4 6 3 16 -3 22 -6 6
-12 6 -17 -2z"/>
<path d="M1810 2286 c0 -2 7 -7 16 -10 8 -3 12 -2 9 4 -6 10 -25 14 -25 6z"/>
<path d="M2375 2249 c-4 -6 -5 -12 -2 -15 2 -3 7 2 10 11 7 17 1 20 -8 4z"/>
<path d="M2397 2231 c-4 -17 -3 -21 5 -13 5 5 8 16 6 23 -3 8 -7 3 -11 -10z"/>
<path d="M2423 2227 c0 -8 6 -14 14 -14 9 0 10 4 2 14 -6 7 -12 13 -14 13 -1
0 -2 -6 -2 -13z"/>
<path d="M2553 2089 c-2 -23 3 -25 10 -4 4 8 3 16 -1 19 -4 3 -9 -4 -9 -15z"/>
<path d="M2592 2029 c-8 -12 -9 -18 -2 -14 6 4 19 1 28 -7 15 -11 15 -11 6 2
-6 8 -13 21 -15 28 -3 8 -9 5 -17 -9z"/>
<path d="M2710 1909 c0 -5 -5 -7 -12 -3 -7 4 -8 3 -4 -4 4 -6 13 -9 21 -6 8 4
12 10 9 15 -7 12 -14 11 -14 -2z"/>
<path d="M2770 1840 c0 -5 5 -10 11 -10 5 0 7 5 4 10 -3 6 -8 10 -11 10 -2 0
-4 -4 -4 -10z"/>
<path d="M2792 1811 c2 -7 7 -12 11 -12 12 1 9 15 -3 20 -7 2 -11 -2 -8 -8z"/>
<path d="M2843 1765 c0 -8 6 -16 14 -19 11 -4 11 -1 3 14 -13 24 -17 25 -17 5z"/>
<path d="M2910 1660 c0 -6 7 -10 15 -10 8 0 15 2 15 4 0 2 -7 6 -15 10 -8 3
-15 1 -15 -4z"/>
<path d="M3006 1585 c4 -8 11 -15 16 -15 6 0 5 6 -2 15 -7 8 -14 15 -16 15 -2
0 -1 -7 2 -15z"/>
<path d="M3007 1539 c7 -7 15 -10 18 -7 3 3 -2 9 -12 12 -14 6 -15 5 -6 -5z"/>
<path d="M3148 1421 c24 -24 36 -42 29 -44 -7 -3 -2 -4 10 -4 20 1 17 6 -23
44 -24 24 -47 43 -50 43 -4 0 12 -18 34 -39z"/>
<path d="M3115 1421 c-3 -5 -2 -12 3 -15 5 -3 9 1 9 9 0 17 -3 19 -12 6z"/>
<path d="M3240 1316 c0 -8 4 -17 9 -20 5 -4 7 3 4 14 -6 23 -13 26 -13 6z"/>
<path d="M3272 1278 c2 -6 10 -13 16 -14 7 -1 8 0 2 3 -5 2 -8 9 -4 14 3 5 0
9 -6 9 -7 0 -10 -5 -8 -12z"/>
<path d="M3335 1200 c-3 -5 -1 -10 4 -10 6 0 11 5 11 10 0 6 -2 10 -4 10 -3 0
-8 -4 -11 -10z"/>
<path d="M3363 1173 c9 -2 17 -8 17 -13 0 -5 10 -15 23 -21 21 -12 21 -11 -3
14 -14 15 -32 26 -40 26 -11 -1 -10 -3 3 -6z"/>
<path d="M3430 1057 c0 -2 6 -10 14 -16 11 -9 16 -9 22 1 4 7 4 10 -1 6 -4 -4
-14 -3 -22 3 -7 6 -13 9 -13 6z"/>
<path d="M3493 1037 c14 -11 15 -16 5 -20 -9 -4 -9 -6 -1 -6 23 -2 23 18 1 29
-21 10 -22 10 -5 -3z"/>
<path d="M3560 960 c0 -6 7 -13 16 -17 11 -4 12 -8 4 -13 -8 -5 -8 -10 -2 -14
19 -12 20 21 1 37 -10 9 -19 12 -19 7z"/>
<path d="M3644 865 c8 -8 18 -15 22 -15 3 0 1 7 -6 15 -7 8 -17 15 -22 15 -5
0 -3 -7 6 -15z"/>
<path d="M3685 810 c-4 -6 -12 -7 -18 -4 -7 4 -8 3 -4 -1 13 -15 34 -14 34 1
0 17 -4 18 -12 4z"/>
<path d="M3723 769 c9 -6 15 -14 13 -18 -3 -4 1 -8 9 -8 13 0 12 4 -2 19 -9
10 -21 18 -27 18 -6 0 -3 -5 7 -11z"/>
<path d="M4651 684 c0 -11 3 -14 6 -6 3 7 2 16 -1 19 -3 4 -6 -2 -5 -13z"/>
<path d="M3816 655 c-9 -26 -7 -32 5 -12 6 10 9 21 6 23 -2 3 -7 -2 -11 -11z"/>
<path d="M4604 638 c-12 -14 -13 -18 -3 -10 9 6 18 10 21 7 2 -3 5 2 5 10 0
19 0 19 -23 -7z"/>
<path d="M4575 600 c-3 -5 -1 -10 4 -10 6 0 11 5 11 10 0 6 -2 10 -4 10 -3 0
-8 -4 -11 -10z"/>
<path d="M4525 561 c-3 -5 -2 -12 3 -15 5 -3 9 1 9 9 0 17 -3 19 -12 6z"/>
<path d="M3930 552 c0 -5 7 -13 16 -16 8 -3 12 -11 8 -17 -4 -7 -3 -9 3 -6 5
3 25 -3 44 -14 34 -20 34 -20 9 0 -65 52 -80 62 -80 53z"/>
<path d="M4500 525 c0 -2 6 -8 13 -14 10 -8 14 -7 14 2 0 8 -6 14 -14 14 -7 0
-13 -1 -13 -2z"/>
<path d="M4045 472 c4 -4 12 -7 18 -7 7 0 11 -8 9 -17 -1 -9 2 -19 8 -23 6 -4
7 1 3 11 -4 10 -2 15 4 11 5 -3 10 0 10 8 0 8 -3 14 -6 13 -3 0 -8 1 -11 2
-16 6 -41 7 -35 2z"/>
<path d="M4170 443 c0 -19 17 -24 30 -8 9 10 9 15 1 15 -6 0 -11 -6 -11 -12 0
-9 -4 -8 -10 2 -6 9 -10 10 -10 3z"/>
<path d="M4275 442 c3 -3 -3 -10 -12 -17 -13 -9 -13 -14 -3 -20 8 -5 11 -4 6
3 -3 6 3 13 14 17 23 7 27 22 5 22 -8 0 -13 -3 -10 -5z"/>
<path d="M4150 429 c0 -5 -6 -7 -12 -3 -7 4 -9 3 -5 -1 13 -15 36 -14 30 1 -6
17 -13 18 -13 3z"/>
</g>
</svg>
